:version 1.10
:name ASF
:units
  mass 1
  length 1
  angle deg
:documentation
  ASF file generated by Kaydara
:root
  axis xyz
  order  tx ty tz rx ry rz
  position 0 0 0
  orientation 0 0 0
:bonedata
  begin
    id 1
    name RightUpLegDummy
    direction -1 2.30186e-007 8.31532e-007
    length 4.04083
    axis 0 0 0 xyz
  end
  begin
    id 2
    name RightUpLeg
    direction -0.000919234 -0.999985 0.00544864
    length 17.4221
    axis -3.80308 -0.00076134 -0.0523649 xyz
    dof rx ry rz
  end
  begin
    id 3
    name RightLeg
    direction -0.000919271 -0.999984 -0.00555045
    length 17.1239
    axis 4.00314 0.0181274 -0.183583 xyz
    dof rx ry rz
  end
  begin
    id 4
    name RightFoot
    direction -2.57843e-005 -4.04509e-007 1
    length 6.72091
    axis 8.18909e-005 -0.122003 -0.403008 xyz
    dof rx ry rz
  end
  begin
    id 5
    name RightToes
    direction 0.00116825 -0.014069 0.9999
    length 3.85082
    axis 0.000514414 0.540638 -0.356797 xyz
    dof rx ry rz
  end
  begin
    id 6
    name SpineDummy
    direction 0.0168869 0.966876 -0.254689
    length 6.99894
    axis 0 0 0 xyz
  end
  begin
    id 7
    name Spine
    direction -0.0132008 0.999903 0.00446247
    length 11.1999
    axis -0.00148109 0.00725429 0.756411 xyz
    dof rx ry rz
  end
  begin
    id 8
    name Spine1
    direction 0 0 0
    length 0
    axis -0.000934958 0.0245693 1.46543 xyz
    dof rx ry rz
  end
  begin
    id 9
    name HEadDummy
    direction -0.0255732 0.999672 0.00128215
    length 3.43865
    axis -0.000934958 0.0245693 1.46543 xyz
  end
  begin
    id 10
    name HEad
    direction -0.0472656 0.980052 0.19304
    length 5.12695
    axis -0.000934954 0.0245693 1.46543 xyz
    dof rx ry rz
  end
  begin
    id 11
    name LeftShoulder1Dummy
    direction 0.953098 0.301717 -0.023914
    length 3.68488
    axis -0.000934958 0.0245693 1.46543 xyz
  end
  begin
    id 12
    name LeftShoulder1
    direction 0.962466 0.271167 0.0112566
    length 3.13809
    axis -0.000934958 0.0245693 1.46543 xyz
    dof rx ry rz
  end
  begin
    id 13
    name LeftArm
    direction 0.999943 0.00455037 -0.00961766
    length 11.3419
    axis -23.1648 0.685459 1.22814 xyz
    dof rx ry rz
  end
  begin
    id 14
    name LeftForeArm
    direction 0.999332 0.0131969 0.0340885
    length 8.70632
    axis -9.90633 0.618216 0.0826942 xyz
    dof rx ry rz
  end
  begin
    id 15
    name LeftHand
    direction 0.994373 -0.0366703 0.0993905
    length 5.32135
    axis 0.00675269 0.680415 0.445699 xyz
    dof rx ry rz
  end
  begin
    id 16
    name RightShoulderDummy
    direction -0.967298 0.252589 -0.0230903
    length 3.68488
    axis -0.000934958 0.0245693 1.46543 xyz
  end
  begin
    id 17
    name RightShoulder
    direction -0.975062 0.221602 0.0120823
    length 3.13809
    axis 0.216257 0.0246515 1.45863 xyz
    dof rx ry rz
  end
  begin
    id 18
    name RightArm
    direction -0.99886 -0.00851186 -0.0469687
    length 10.3947
    axis -23.196 0.23503 -0.532632 xyz
    dof rx ry rz
  end
  begin
    id 19
    name RightForeArm
    direction -0.99909 0.00114866 0.0426317
    length 8.68355
    axis -9.91764 -0.134943 0.610517 xyz
    dof rx ry rz
  end
  begin
    id 20
    name RightHand
    direction -0.992888 -0.0489538 0.10852
    length 5.28593
    axis -0.00275396 -0.197403 0.246414 xyz
    dof rx ry rz
  end
  begin
    id 21
    name LeftUpLegDummy
    direction 1 -2.30186e-007 -8.31532e-007
    length 4.04083
    axis 0 0 0 xyz
  end
  begin
    id 22
    name LeftUpLeg
    direction -0.000920097 -1 2.79241e-006
    length 17.4221
    axis -3.48782 0.00143434 -0.0532288 xyz
    dof rx ry rz
  end
  begin
    id 23
    name LeftLeg
    direction -0.000920097 -1 2.7912e-006
    length 17.1239
    axis 3.68162 -0.00806512 -0.0529896 xyz
    dof rx ry rz
  end
  begin
    id 24
    name LeftFoot
    direction -2.57845e-005 -3.987e-007 1
    length 6.72091
    axis 3.02372e-005 -0.00147829 -0.214229 xyz
    dof rx ry rz
  end
  begin
    id 25
    name LeftToes
    direction 0.00813577 -0.00488255 0.999955
    length 3.85048
    axis 3.89895e-005 -0.0014783 -0.214229 xyz
    dof rx ry rz
  end
:hierarchy
  begin
    root RightUpLegDummy SpineDummy LeftUpLegDummy
    RightUpLegDummy RightUpLeg
    RightUpLeg RightLeg
    RightLeg RightFoot
    RightFoot RightToes
    SpineDummy Spine
    Spine Spine1
    Spine1 HEadDummy LeftShoulder1Dummy RightShoulderDummy
    HEadDummy HEad
    LeftShoulder1Dummy LeftShoulder1
    LeftShoulder1 LeftArm
    LeftArm LeftForeArm
    LeftForeArm LeftHand
    RightShoulderDummy RightShoulder
    RightShoulder RightArm
    RightArm RightForeArm
    RightForeArm RightHand
    LeftUpLegDummy LeftUpLeg
    LeftUpLeg LeftLeg
    LeftLeg LeftFoot
    LeftFoot LeftToes
  end

:SAMPLES-PER-SECOND 30
:FULLY-SPECIFIED
:DEGREES
172
root  4.097 34.7443 -64.604 -166.498 4.97992 -178.723
RightUpLeg  -11.977 -6.51457 -0.366727
RightLeg  5.75253 -2.66588 -0.0949909
RightFoot  6.74179 0.0349905 -0.153651
RightToes  -23.2201 -0.101281 -0.204989
Spine  -0.787156 0.776905 1.3718
Spine1  -1.57826 1.66638 3.36577
HEad  -68.0324 6.89892 3.65028
LeftShoulder1  -1.94126e-019 -3.10601e-018 -2.51263e-017
LeftArm  -22.5551 24.9386 -81.3762
LeftForeArm  28.0089 -22.5399 -3.5961
LeftHand  -0.486047 -1.43758 8.42796
RightShoulder  -4.96962e-017 0 -2.36833e-017
RightArm  -20.1753 -19.0072 71.0194
RightForeArm  50.7008 22.2599 2.19414
RightHand  -0.393575 -0.908332 -10.149
LeftUpLeg  -10.8142 -3.5274 7.3012
LeftLeg  12.2795 11.5553 1.73303
LeftFoot  5.2733 -0.0493542 1.23146
LeftToes  -27.5114 1.31378e-006 1.14341e-007
173
root  4.05387 34.7094 -64.7318 -166.618 4.04897 -178.708
RightUpLeg  -11.1066 -7.10633 -0.387448
RightLeg  4.96511 -2.89967 -0.0635941
RightFoot  6.70296 0.0373842 -0.178151
RightToes  -23.4122 -0.102437 -0.206483
Spine  -1.03136 0.690682 1.46254
Spine1  -2.06743 1.5154 3.53009
HEad  -68.063 7.0119 3.64061
LeftShoulder1  -1.94126e-019 -3.10601e-018 -2.51263e-017
LeftArm  -21.8056 24.6111 -81.3874
LeftForeArm  28.4137 -22.1313 -3.55803
LeftHand  -0.481876 -1.51494 8.26932
RightShoulder  -4.96962e-017 0 -2.36833e-017
RightArm  -21.0243 -18.6733 70.8359
RightForeArm  50.9215 20.3746 1.82643
RightHand  -0.386097 -1.10387 -10.3881
LeftUpLeg  -9.45831 -4.57894 7.30458
LeftLeg  9.83658 12.0969 1.29323
LeftFoot  5.32059 -0.0518571 1.28514
LeftToes  -26.2266 1.31378e-006 1.14341e-007
174
root  4.00037 34.6511 -64.8723 -167.167 2.88231 -178.717
RightUpLeg  -9.72246 -8.34308 -0.45219
RightLeg  4.1098 -2.72282 -0.019129
RightFoot  6.53086 0.035907 -0.150792
RightToes  -23.8239 -0.103785 -0.208261
Spine  -1.13271 0.4892 1.55526
Spine1  -2.27869 1.13537 3.68415
HEad  -68.0783 7.15666 3.63347
LeftShoulder1  -1.94126e-019 -3.10601e-018 -2.51263e-017
LeftArm  -20.3845 24.2818 -81.2492
LeftForeArm  28.3606 -22.2713 -3.59183
LeftHand  -0.468365 -1.43928 8.12521
RightShoulder  -4.96962e-017 0 -2.36833e-017
RightArm  -22.0268 -18.3753 70.6911
RightForeArm  51.4277 18.968 1.54635
RightHand  -0.381646 -1.15782 -10.3922
LeftUpLeg  -8.06619 -4.94096 7.24405
LeftLeg  8.05036 11.768 0.891505
LeftFoot  5.10124 -0.0453506 1.19864
LeftToes  -24.9116 1.31378e-006 1.14341e-007
175
root  3.9465 34.5934 -65.0234 -167.911 1.84329 -178.727
RightUpLeg  -8.2491 -9.5082 -0.58412
RightLeg  3.46236 -2.54066 0.0108048
RightFoot  6.39779 0.0344232 -0.126311
RightToes  -24.304 -0.106728 -0.210494
Spine  -1.17951 0.356419 1.59342
Spine1  -2.38435 0.891047 3.71605
HEad  -68.0088 6.87435 3.76272
LeftShoulder1  -1.94126e-019 -3.10601e-018 -2.51263e-017
LeftArm  -19.2624 23.912 -81.0757
LeftForeArm  28.3143 -22.5833 -3.63915
LeftHand  -0.474691 -1.4973 8.18116
RightShoulder  -4.96962e-017 0 -2.36833e-017
RightArm  -22.593 -18.2051 70.615
RightForeArm  51.871 17.764 1.31173
RightHand  -0.378594 -1.23384 -10.4886
LeftUpLeg  -6.74365 -4.88737 7.18678
LeftLeg  6.84901 10.9012 0.598607
LeftFoot  5.04757 -0.0379821 1.0986
LeftToes  -24.6635 1.31378e-006 1.14341e-007
176
root  3.88014 34.5482 -65.1467 -168.545 0.907043 -178.693
RightUpLeg  -7.17772 -10.58 -0.726443
RightLeg  3.2929 -2.31049 0.0166923
RightFoot  6.19289 0.0322453 -0.0944018
RightToes  -24.7491 -0.108992 -0.213866
Spine  -1.26758 0.243466 1.61954
Spine1  -2.56959 0.678049 3.73978
HEad  -67.9614 6.29636 4.02039
LeftShoulder1  -1.94126e-019 -3.10601e-018 -2.51263e-017
LeftArm  -18.2172 23.5366 -80.9289
LeftForeArm  28.1798 -22.9457 -3.70394
LeftHand  -0.481956 -1.5628 8.21741
RightShoulder  -4.96962e-017 0 -2.36833e-017
RightArm  -23.2359 -18.1137 70.6293
RightForeArm  52.7099 16.5162 1.12337
RightHand  -0.382271 -1.28532 -10.7192
LeftUpLeg  -5.92336 -5.09461 7.22234
LeftLeg  6.43209 10.0928 0.481428
LeftFoot  4.87178 -0.0298804 0.987032
LeftToes  -24.9912 1.31378e-006 1.14341e-007
177
root  3.81123 34.5284 -65.2334 -169.08 0.240417 -178.695
RightUpLeg  -6.65854 -11.1888 -0.921558
RightLeg  3.84148 -2.27618 -0.00524702
RightFoot  5.8048 0.0308431 -0.0755798
RightToes  -25.1936 -0.110997 -0.21584
Spine  -1.36266 0.236077 1.59133
Spine1  -2.76468 0.66614 3.66973
HEad  -68.1357 5.39827 4.21369
LeftShoulder1  -1.94126e-019 -3.10601e-018 -2.51263e-017
LeftArm  -17.536 22.9448 -80.8942
LeftForeArm  28.3808 -23.1134 -3.74905
LeftHand  -0.468494 -1.44271 8.12359
RightShoulder  -4.96962e-017 0 -2.36833e-017
RightArm  -24.4592 -18.1894 70.8044
RightForeArm  53.857 15.3862 1.13224
RightHand  -0.377622 -1.45202 -11.0174
LeftUpLeg  -5.41584 -6.34801 7.17551
LeftLeg  6.51147 10.4721 0.51381
LeftFoot  4.64666 -0.0281963 0.975056
LeftToes  -25.2227 1.31378e-006 1.14341e-007
